# Blender 3.4.1
# www.blender.org
mtllib falserceiling.mtl
o Cube.033
v -7.299182 -13.290161 14.842238
v -7.299182 -13.290161 14.872787
v -7.299182 -13.039873 14.842238
v -7.299182 -13.039873 14.872787
v 0.836378 -13.290161 14.842238
v 0.836378 -13.290161 14.872787
v 0.836378 -13.039873 14.842238
v 0.836378 -13.039873 14.872787
vn -1.0000 -0.0000 -0.0000
vn -0.0000 1.0000 -0.0000
vn 1.0000 -0.0000 -0.0000
vn -0.0000 -1.0000 -0.0000
vn -0.0000 -0.0000 -1.0000
vn -0.0000 -0.0000 1.0000
vt 0.375000 0.000000
vt 0.375000 1.000000
vt 0.125000 0.750000
vt 0.625000 0.000000
vt 0.625000 1.000000
vt 0.875000 0.750000
vt 0.125000 0.500000
vt 0.375000 0.250000
vt 0.625000 0.250000
vt 0.875000 0.500000
vt 0.375000 0.750000
vt 0.625000 0.750000
vt 0.375000 0.500000
vt 0.625000 0.500000
s 0
f 2/4/1 3/8/1 1/1/1
f 4/9/2 7/13/2 3/8/2
f 8/14/3 5/11/3 7/13/3
f 6/12/4 1/2/4 5/11/4
f 7/13/5 1/3/5 3/7/5
f 4/10/6 6/12/6 8/14/6
f 2/4/1 4/9/1 3/8/1
f 4/9/2 8/14/2 7/13/2
f 8/14/3 6/12/3 5/11/3
f 6/12/4 2/5/4 1/2/4
f 7/13/5 5/11/5 1/3/5
f 4/10/6 2/6/6 6/12/6
o Cube.034
v -7.299182 -13.800585 14.842238
v -7.299182 -13.800585 14.872787
v -7.299182 -13.550297 14.842238
v -7.299182 -13.550297 14.872787
v 0.836378 -13.800585 14.842238
v 0.836378 -13.800585 14.872787
v 0.836378 -13.550297 14.842238
v 0.836378 -13.550297 14.872787
vn -1.0000 -0.0000 -0.0000
vn -0.0000 1.0000 -0.0000
vn 1.0000 -0.0000 -0.0000
vn -0.0000 -1.0000 -0.0000
vn -0.0000 -0.0000 -1.0000
vn -0.0000 -0.0000 1.0000
vt 0.375000 0.000000
vt 0.375000 1.000000
vt 0.125000 0.750000
vt 0.625000 0.000000
vt 0.625000 1.000000
vt 0.875000 0.750000
vt 0.125000 0.500000
vt 0.375000 0.250000
vt 0.625000 0.250000
vt 0.875000 0.500000
vt 0.375000 0.750000
vt 0.625000 0.750000
vt 0.375000 0.500000
vt 0.625000 0.500000
s 0
f 10/18/7 11/22/7 9/15/7
f 12/23/8 15/27/8 11/22/8
f 16/28/9 13/25/9 15/27/9
f 14/26/10 9/16/10 13/25/10
f 15/27/11 9/17/11 11/21/11
f 12/24/12 14/26/12 16/28/12
f 10/18/7 12/23/7 11/22/7
f 12/23/8 16/28/8 15/27/8
f 16/28/9 14/26/9 13/25/9
f 14/26/10 10/19/10 9/16/10
f 15/27/11 13/25/11 9/17/11
f 12/24/12 10/20/12 14/26/12
o Cube.035
v -7.299182 -12.333391 14.842238
v -7.299182 -12.333391 14.872787
v -7.299182 -12.083103 14.842238
v -7.299182 -12.083103 14.872787
v 0.836378 -12.333391 14.842238
v 0.836378 -12.333391 14.872787
v 0.836378 -12.083103 14.842238
v 0.836378 -12.083103 14.872787
vn -1.0000 -0.0000 -0.0000
vn -0.0000 1.0000 -0.0000
vn 1.0000 -0.0000 -0.0000
vn -0.0000 -1.0000 -0.0000
vn -0.0000 -0.0000 -1.0000
vn -0.0000 -0.0000 1.0000
vt 0.375000 0.000000
vt 0.375000 1.000000
vt 0.125000 0.750000
vt 0.625000 0.000000
vt 0.625000 1.000000
vt 0.875000 0.750000
vt 0.125000 0.500000
vt 0.375000 0.250000
vt 0.625000 0.250000
vt 0.875000 0.500000
vt 0.375000 0.750000
vt 0.625000 0.750000
vt 0.375000 0.500000
vt 0.625000 0.500000
s 0
usemtl Material.010
f 18/32/13 19/36/13 17/29/13
f 20/37/14 23/41/14 19/36/14
f 24/42/15 21/39/15 23/41/15
f 22/40/16 17/30/16 21/39/16
f 23/41/17 17/31/17 19/35/17
f 20/38/18 22/40/18 24/42/18
f 18/32/13 20/37/13 19/36/13
f 20/37/14 24/42/14 23/41/14
f 24/42/15 22/40/15 21/39/15
f 22/40/16 18/33/16 17/30/16
f 23/41/17 21/39/17 17/31/17
f 20/38/18 18/34/18 22/40/18
o Cube.036
v -7.299182 -12.843815 14.842238
v -7.299182 -12.843815 14.872787
v -7.299182 -12.593527 14.842238
v -7.299182 -12.593527 14.872787
v 0.836378 -12.843815 14.842238
v 0.836378 -12.843815 14.872787
v 0.836378 -12.593527 14.842238
v 0.836378 -12.593527 14.872787
vn -1.0000 -0.0000 -0.0000
vn -0.0000 1.0000 -0.0000
vn 1.0000 -0.0000 -0.0000
vn -0.0000 -1.0000 -0.0000
vn -0.0000 -0.0000 -1.0000
vn -0.0000 -0.0000 1.0000
vt 0.375000 0.000000
vt 0.375000 1.000000
vt 0.125000 0.750000
vt 0.625000 0.000000
vt 0.625000 1.000000
vt 0.875000 0.750000
vt 0.125000 0.500000
vt 0.375000 0.250000
vt 0.625000 0.250000
vt 0.875000 0.500000
vt 0.375000 0.750000
vt 0.625000 0.750000
vt 0.375000 0.500000
vt 0.625000 0.500000
s 0
f 26/46/19 27/50/19 25/43/19
f 28/51/20 31/55/20 27/50/20
f 32/56/21 29/53/21 31/55/21
f 30/54/22 25/44/22 29/53/22
f 31/55/23 25/45/23 27/49/23
f 28/52/24 30/54/24 32/56/24
f 26/46/19 28/51/19 27/50/19
f 28/51/20 32/56/20 31/55/20
f 32/56/21 30/54/21 29/53/21
f 30/54/22 26/47/22 25/44/22
f 31/55/23 29/53/23 25/45/23
f 28/52/24 26/48/24 30/54/24
o Cube.037
v -7.299182 -15.237955 14.842238
v -7.299182 -15.237955 14.872787
v -7.299182 -14.987667 14.842238
v -7.299182 -14.987667 14.872787
v 0.836378 -15.237955 14.842238
v 0.836378 -15.237955 14.872787
v 0.836378 -14.987667 14.842238
v 0.836378 -14.987667 14.872787
vn -1.0000 -0.0000 -0.0000
vn -0.0000 1.0000 -0.0000
vn 1.0000 -0.0000 -0.0000
vn -0.0000 -1.0000 -0.0000
vn -0.0000 -0.0000 -1.0000
vn -0.0000 -0.0000 1.0000
vt 0.375000 0.000000
vt 0.375000 1.000000
vt 0.125000 0.750000
vt 0.625000 0.000000
vt 0.625000 1.000000
vt 0.875000 0.750000
vt 0.125000 0.500000
vt 0.375000 0.250000
vt 0.625000 0.250000
vt 0.875000 0.500000
vt 0.375000 0.750000
vt 0.625000 0.750000
vt 0.375000 0.500000
vt 0.625000 0.500000
s 0
f 34/60/25 35/64/25 33/57/25
f 36/65/26 39/69/26 35/64/26
f 40/70/27 37/67/27 39/69/27
f 38/68/28 33/58/28 37/67/28
f 39/69/29 33/59/29 35/63/29
f 36/66/30 38/68/30 40/70/30
f 34/60/25 36/65/25 35/64/25
f 36/65/26 40/70/26 39/69/26
f 40/70/27 38/68/27 37/67/27
f 38/68/28 34/61/28 33/58/28
f 39/69/29 37/67/29 33/59/29
f 36/66/30 34/62/30 38/68/30
o Cube.038
v -7.299182 -15.748379 14.842238
v -7.299182 -15.748379 14.872787
v -7.299182 -15.498091 14.842238
v -7.299182 -15.498091 14.872787
v 0.836378 -15.748379 14.842238
v 0.836378 -15.748379 14.872787
v 0.836378 -15.498091 14.842238
v 0.836378 -15.498091 14.872787
vn -1.0000 -0.0000 -0.0000
vn -0.0000 1.0000 -0.0000
vn 1.0000 -0.0000 -0.0000
vn -0.0000 -1.0000 -0.0000
vn -0.0000 -0.0000 -1.0000
vn -0.0000 -0.0000 1.0000
vt 0.375000 0.000000
vt 0.375000 1.000000
vt 0.125000 0.750000
vt 0.625000 0.000000
vt 0.625000 1.000000
vt 0.875000 0.750000
vt 0.125000 0.500000
vt 0.375000 0.250000
vt 0.625000 0.250000
vt 0.875000 0.500000
vt 0.375000 0.750000
vt 0.625000 0.750000
vt 0.375000 0.500000
vt 0.625000 0.500000
s 0
f 42/74/31 43/78/31 41/71/31
f 44/79/32 47/83/32 43/78/32
f 48/84/33 45/81/33 47/83/33
f 46/82/34 41/72/34 45/81/34
f 47/83/35 41/73/35 43/77/35
f 44/80/36 46/82/36 48/84/36
f 42/74/31 44/79/31 43/78/31
f 44/79/32 48/84/32 47/83/32
f 48/84/33 46/82/33 45/81/33
f 46/82/34 42/75/34 41/72/34
f 47/83/35 45/81/35 41/73/35
f 44/80/36 42/76/36 46/82/36
o Cube.039
v -7.299182 -14.281185 14.842238
v -7.299182 -14.281185 14.872787
v -7.299182 -14.030897 14.842238
v -7.299182 -14.030897 14.872787
v 0.836378 -14.281185 14.842238
v 0.836378 -14.281185 14.872787
v 0.836378 -14.030897 14.842238
v 0.836378 -14.030897 14.872787
vn -1.0000 -0.0000 -0.0000
vn -0.0000 1.0000 -0.0000
vn 1.0000 -0.0000 -0.0000
vn -0.0000 -1.0000 -0.0000
vn -0.0000 -0.0000 -1.0000
vn -0.0000 -0.0000 1.0000
vt 0.375000 0.000000
vt 0.375000 1.000000
vt 0.125000 0.750000
vt 0.625000 0.000000
vt 0.625000 1.000000
vt 0.875000 0.750000
vt 0.125000 0.500000
vt 0.375000 0.250000
vt 0.625000 0.250000
vt 0.875000 0.500000
vt 0.375000 0.750000
vt 0.625000 0.750000
vt 0.375000 0.500000
vt 0.625000 0.500000
s 0
f 50/88/37 51/92/37 49/85/37
f 52/93/38 55/97/38 51/92/38
f 56/98/39 53/95/39 55/97/39
f 54/96/40 49/86/40 53/95/40
f 55/97/41 49/87/41 51/91/41
f 52/94/42 54/96/42 56/98/42
f 50/88/37 52/93/37 51/92/37
f 52/93/38 56/98/38 55/97/38
f 56/98/39 54/96/39 53/95/39
f 54/96/40 50/89/40 49/86/40
f 55/97/41 53/95/41 49/87/41
f 52/94/42 50/90/42 54/96/42
o Cube.040
v -7.299182 -14.791609 14.842238
v -7.299182 -14.791609 14.872787
v -7.299182 -14.541321 14.842238
v -7.299182 -14.541321 14.872787
v 0.836378 -14.791609 14.842238
v 0.836378 -14.791609 14.872787
v 0.836378 -14.541321 14.842238
v 0.836378 -14.541321 14.872787
vn -1.0000 -0.0000 -0.0000
vn -0.0000 1.0000 -0.0000
vn 1.0000 -0.0000 -0.0000
vn -0.0000 -1.0000 -0.0000
vn -0.0000 -0.0000 -1.0000
vn -0.0000 -0.0000 1.0000
vt 0.375000 0.000000
vt 0.375000 1.000000
vt 0.125000 0.750000
vt 0.625000 0.000000
vt 0.625000 1.000000
vt 0.875000 0.750000
vt 0.125000 0.500000
vt 0.375000 0.250000
vt 0.625000 0.250000
vt 0.875000 0.500000
vt 0.375000 0.750000
vt 0.625000 0.750000
vt 0.375000 0.500000
vt 0.625000 0.500000
s 0
f 58/102/43 59/106/43 57/99/43
f 60/107/44 63/111/44 59/106/44
f 64/112/45 61/109/45 63/111/45
f 62/110/46 57/100/46 61/109/46
f 63/111/47 57/101/47 59/105/47
f 60/108/48 62/110/48 64/112/48
f 58/102/43 60/107/43 59/106/43
f 60/107/44 64/112/44 63/111/44
f 64/112/45 62/110/45 61/109/45
f 62/110/46 58/103/46 57/100/46
f 63/111/47 61/109/47 57/101/47
f 60/108/48 58/104/48 62/110/48
