# Blender 3.4.1
# www.blender.org
mtllib monitorbox.mtl
o Cube.018
v -3.457772 -10.960838 12.878491
v -3.457772 -10.960838 12.890817
v -3.457772 -10.819386 12.878491
v -3.457772 -10.819386 12.890817
v -3.316320 -10.960838 12.878491
v -3.316320 -10.960838 12.890817
v -3.316320 -10.819386 12.878491
v -3.316320 -10.819386 12.890817
vn -1.0000 -0.0000 -0.0000
vn -0.0000 1.0000 -0.0000
vn 1.0000 -0.0000 -0.0000
vn -0.0000 -1.0000 -0.0000
vn -0.0000 -0.0000 -1.0000
vn -0.0000 -0.0000 1.0000
vt 0.375000 0.000000
vt 0.375000 1.000000
vt 0.125000 0.750000
vt 0.625000 0.000000
vt 0.625000 1.000000
vt 0.875000 0.750000
vt 0.125000 0.500000
vt 0.375000 0.250000
vt 0.625000 0.250000
vt 0.875000 0.500000
vt 0.375000 0.750000
vt 0.625000 0.750000
vt 0.375000 0.500000
vt 0.625000 0.500000
s 0
usemtl Material.020
f 2/4/1 3/8/1 1/1/1
f 4/9/2 7/13/2 3/8/2
f 8/14/3 5/11/3 7/13/3
f 6/12/4 1/2/4 5/11/4
f 7/13/5 1/3/5 3/7/5
f 4/10/6 6/12/6 8/14/6
f 2/4/1 4/9/1 3/8/1
f 4/9/2 8/14/2 7/13/2
f 8/14/3 6/12/3 5/11/3
f 6/12/4 2/5/4 1/2/4
f 7/13/5 5/11/5 1/3/5
f 4/10/6 2/6/6 6/12/6
o Cube.019
v -3.354285 -10.869689 13.078037
v -3.329158 -10.869689 12.882108
v -3.354285 -10.910535 13.078037
v -3.329158 -10.910535 12.882108
v -3.362669 -10.869689 13.076962
v -3.337542 -10.869689 12.881033
v -3.362669 -10.910535 13.076962
v -3.337542 -10.910535 12.881033
vn 0.9919 -0.0000 0.1272
vn -0.0000 -1.0000 -0.0000
vn -0.9919 -0.0000 -0.1272
vn -0.0000 1.0000 -0.0000
vn -0.1272 -0.0000 0.9919
vn 0.1272 -0.0000 -0.9919
vt 0.375000 0.000000
vt 0.375000 1.000000
vt 0.125000 0.750000
vt 0.625000 0.000000
vt 0.625000 1.000000
vt 0.875000 0.750000
vt 0.125000 0.500000
vt 0.375000 0.250000
vt 0.625000 0.250000
vt 0.875000 0.500000
vt 0.375000 0.750000
vt 0.625000 0.750000
vt 0.375000 0.500000
vt 0.625000 0.500000
s 0
usemtl Material.019
f 10/18/7 9/15/7 11/22/7
f 12/23/8 11/22/8 15/27/8
f 16/28/9 15/27/9 13/25/9
f 14/26/10 13/25/10 9/16/10
f 15/27/11 11/21/11 9/17/11
f 12/24/12 16/28/12 14/26/12
f 10/18/7 11/22/7 12/23/7
f 12/23/8 15/27/8 16/28/8
f 16/28/9 13/25/9 14/26/9
f 14/26/10 9/16/10 10/19/10
f 15/27/11 9/17/11 13/25/11
f 12/24/12 14/26/12 10/20/12
o Cube.020
v -3.395655 -11.133312 12.955741
v -3.395655 -11.133312 13.231360
v -3.395655 -10.646912 12.955741
v -3.395655 -10.646912 13.231360
v -3.378438 -11.133312 12.955741
v -3.378438 -11.133312 13.231360
v -3.378438 -10.646912 12.955741
v -3.378438 -10.646912 13.231360
vn -1.0000 -0.0000 -0.0000
vn -0.0000 1.0000 -0.0000
vn 1.0000 -0.0000 -0.0000
vn -0.0000 -1.0000 -0.0000
vn -0.0000 -0.0000 -1.0000
vn -0.0000 -0.0000 1.0000
vt 0.375000 0.000000
vt 0.375000 1.000000
vt 0.125000 0.750000
vt 0.625000 0.000000
vt 0.625000 1.000000
vt 0.875000 0.750000
vt 0.125000 0.500000
vt 0.375000 0.250000
vt 0.625000 0.250000
vt 0.875000 0.500000
vt 0.375000 0.750000
vt 0.625000 0.750000
vt 0.375000 0.500000
vt 0.625000 0.500000
s 0
usemtl Material.018
f 18/32/13 19/36/13 17/29/13
f 20/37/14 23/41/14 19/36/14
f 24/42/15 21/39/15 23/41/15
f 22/40/16 17/30/16 21/39/16
f 23/41/17 17/31/17 19/35/17
f 20/38/18 22/40/18 24/42/18
f 18/32/13 20/37/13 19/36/13
f 20/37/14 24/42/14 23/41/14
f 24/42/15 22/40/15 21/39/15
f 22/40/16 18/33/16 17/30/16
f 23/41/17 21/39/17 17/31/17
f 20/38/18 18/34/18 22/40/18
o Cube.021
v -3.379138 -10.944895 13.041472
v -3.379138 -10.944895 13.103559
v -3.379138 -10.835329 13.041472
v -3.379138 -10.835329 13.103559
v -3.360743 -10.944895 13.041472
v -3.360743 -10.944895 13.103559
v -3.360743 -10.835329 13.041472
v -3.360743 -10.835329 13.103559
vn -1.0000 -0.0000 -0.0000
vn -0.0000 1.0000 -0.0000
vn 1.0000 -0.0000 -0.0000
vn -0.0000 -1.0000 -0.0000
vn -0.0000 -0.0000 -1.0000
vn -0.0000 -0.0000 1.0000
vt 0.375000 0.000000
vt 0.375000 1.000000
vt 0.125000 0.750000
vt 0.625000 0.000000
vt 0.625000 1.000000
vt 0.875000 0.750000
vt 0.125000 0.500000
vt 0.375000 0.250000
vt 0.625000 0.250000
vt 0.875000 0.500000
vt 0.375000 0.750000
vt 0.625000 0.750000
vt 0.375000 0.500000
vt 0.625000 0.500000
s 0
f 26/46/19 27/50/19 25/43/19
f 28/51/20 31/55/20 27/50/20
f 32/56/21 29/53/21 31/55/21
f 30/54/22 25/44/22 29/53/22
f 31/55/23 25/45/23 27/49/23
f 28/52/24 30/54/24 32/56/24
f 26/46/19 28/51/19 27/50/19
f 28/51/20 32/56/20 31/55/20
f 32/56/21 30/54/21 29/53/21
f 30/54/22 26/47/22 25/44/22
f 31/55/23 29/53/23 25/45/23
f 28/52/24 26/48/24 30/54/24
o Cube.022
v -3.388001 -11.122363 12.961945
v -3.388001 -11.122363 13.225157
v -3.388001 -10.657861 12.961945
v -3.388001 -10.657861 13.225157
v -3.371560 -11.122363 12.961945
v -3.371560 -11.122363 13.225157
v -3.371560 -10.657861 12.961945
v -3.371560 -10.657861 13.225157
vn -1.0000 -0.0000 -0.0000
vn -0.0000 1.0000 -0.0000
vn 1.0000 -0.0000 -0.0000
vn -0.0000 -1.0000 -0.0000
vn -0.0000 -0.0000 -1.0000
vn -0.0000 -0.0000 1.0000
vt 0.375000 0.000000
vt 0.375000 1.000000
vt 0.125000 0.750000
vt 0.625000 0.000000
vt 0.625000 1.000000
vt 0.875000 0.750000
vt 0.125000 0.500000
vt 0.375000 0.250000
vt 0.625000 0.250000
vt 0.875000 0.500000
vt 0.375000 0.750000
vt 0.625000 0.750000
vt 0.375000 0.500000
vt 0.625000 0.500000
s 0
usemtl Material.017
f 34/60/25 35/64/25 33/57/25
f 36/65/26 39/69/26 35/64/26
f 40/70/27 37/67/27 39/69/27
f 38/68/28 33/58/28 37/67/28
f 39/69/29 33/59/29 35/63/29
f 36/66/30 38/68/30 40/70/30
f 34/60/25 36/65/25 35/64/25
f 36/65/26 40/70/26 39/69/26
f 40/70/27 38/68/27 37/67/27
f 38/68/28 34/61/28 33/58/28
f 39/69/29 37/67/29 33/59/29
f 36/66/30 34/62/30 38/68/30
