# Blender 3.4.1
# www.blender.org
mtllib Tabletopfixedrender.mtl
o Cube.015
v -3.540310 -11.326489 12.872846
v -3.540310 -11.326489 12.882447
v -3.827507 -11.439581 12.882447
v -3.827507 -11.439581 12.872846
v -3.700899 -11.336745 12.874249
v -3.697788 -11.439581 12.872846
v -3.540310 -11.383036 12.882447
v -3.540310 -11.383036 12.872846
v -3.827507 -10.890112 12.882447
v -3.827507 -10.890112 12.872846
v -3.827507 -11.326489 12.872846
v -3.827507 -11.326489 12.882447
v -3.540310 -11.439581 12.882447
v -3.540310 -11.439581 12.872846
v -3.827507 -11.383036 12.872846
v -3.827507 -11.383036 12.882447
v -3.540310 -10.890112 12.872846
v -3.540310 -10.890112 12.882447
v -3.697788 -11.383036 12.882447
v -3.697788 -11.326489 12.882447
v -3.697788 -11.439581 12.882447
v -3.700899 -11.382360 12.874249
v -3.697788 -10.890112 12.872846
v -3.697788 -10.890112 12.882447
v -3.762647 -11.439581 12.872846
v -3.761872 -11.336745 12.874249
v -3.762647 -11.326489 12.882447
v -3.762647 -10.890112 12.872846
v -3.761872 -11.382360 12.874249
v -3.762647 -11.383036 12.882447
v -3.762647 -11.439581 12.882447
v -3.762647 -10.890112 12.882447
v -3.730217 -11.326427 12.875185
v -3.730217 -11.383098 12.875185
v -3.697716 -11.354763 12.875185
v -3.762718 -11.354763 12.875185
v -3.540310 -10.453734 12.872846
v -3.540310 -10.453734 12.882447
v -3.827507 -10.340643 12.882447
v -3.827507 -10.340643 12.872846
v -3.700899 -10.443479 12.874249
v -3.697788 -10.340643 12.872846
v -3.540310 -10.397188 12.882447
v -3.540310 -10.397188 12.872846
v -3.827507 -10.453734 12.872846
v -3.827507 -10.453734 12.882447
v -3.540310 -10.340643 12.882447
v -3.540310 -10.340643 12.872846
v -3.827507 -10.397188 12.872846
v -3.827507 -10.397188 12.882447
v -3.697788 -10.397188 12.882447
v -3.697788 -10.453734 12.882447
v -3.697788 -10.340643 12.882447
v -3.700899 -10.397864 12.874249
v -3.762647 -10.340643 12.872846
v -3.761872 -10.443479 12.874249
v -3.762647 -10.453734 12.882447
v -3.761872 -10.397864 12.874249
v -3.762647 -10.397188 12.882447
v -3.762647 -10.340643 12.882447
v -3.730217 -10.453796 12.875185
v -3.730217 -10.397126 12.875185
v -3.697716 -10.425461 12.875185
v -3.762718 -10.425461 12.875185
v -3.253113 -11.439581 12.882447
v -3.253113 -11.439581 12.872846
v -3.379721 -11.336745 12.874249
v -3.382832 -11.439581 12.872846
v -3.253113 -10.890112 12.882447
v -3.253113 -10.890112 12.872846
v -3.253113 -11.326489 12.872846
v -3.253113 -11.326489 12.882447
v -3.253113 -11.383036 12.872846
v -3.253113 -11.383036 12.882447
v -3.382832 -11.383036 12.882447
v -3.382832 -11.326489 12.882447
v -3.382832 -11.439581 12.882447
v -3.379721 -11.382360 12.874249
v -3.382832 -10.890112 12.872846
v -3.382832 -10.890112 12.882447
v -3.317972 -11.439581 12.872846
v -3.318747 -11.336745 12.874249
v -3.317972 -11.326489 12.882447
v -3.317972 -10.890112 12.872846
v -3.318747 -11.382360 12.874249
v -3.317972 -11.383036 12.882447
v -3.317972 -11.439581 12.882447
v -3.317972 -10.890112 12.882447
v -3.350402 -11.326427 12.875185
v -3.350402 -11.383098 12.875185
v -3.382903 -11.354763 12.875185
v -3.317901 -11.354763 12.875185
v -3.253113 -10.340643 12.882447
v -3.253113 -10.340643 12.872846
v -3.379721 -10.443479 12.874249
v -3.382832 -10.340643 12.872846
v -3.253113 -10.453734 12.872846
v -3.253113 -10.453734 12.882447
v -3.253113 -10.397188 12.872846
v -3.253113 -10.397188 12.882447
v -3.382832 -10.397188 12.882447
v -3.382832 -10.453734 12.882447
v -3.382832 -10.340643 12.882447
v -3.379721 -10.397864 12.874249
v -3.317972 -10.340643 12.872846
v -3.318747 -10.443479 12.874249
v -3.317972 -10.453734 12.882447
v -3.318747 -10.397864 12.874249
v -3.317972 -10.397188 12.882447
v -3.317972 -10.340643 12.882447
v -3.350402 -10.453796 12.875185
v -3.350402 -10.397126 12.875185
v -3.382903 -10.425461 12.875185
v -3.317901 -10.425461 12.875185
vn -0.0000 -1.0000 -0.0000
vn -0.0329 -0.0029 -0.9995
vn -0.0000 -0.0000 1.0000
vn -0.0000 -0.0000 -1.0000
vn -0.0000 0.0245 -0.9997
vn -1.0000 -0.0000 -0.0000
vn -0.0086 0.0240 -0.9997
vn -0.0087 -0.0000 -1.0000
vn 0.0211 0.0242 -0.9995
vn 0.7416 -0.0000 0.6709
vn -0.0000 1.0000 -0.0000
vn -0.0329 0.0029 -0.9995
vn -0.0085 0.0031 -1.0000
vn -0.0000 -0.0245 -0.9997
vn -0.0086 -0.0240 -0.9997
vn 0.0214 -0.0000 -0.9998
vn 0.0329 -0.0029 -0.9995
vn 0.0085 -0.0031 -1.0000
vn 1.0000 -0.0000 -0.0000
vn 0.0086 0.0240 -0.9997
vn 0.0087 -0.0000 -1.0000
vn -0.0214 -0.0000 -0.9998
vn 0.0329 0.0029 -0.9995
vn 0.0086 -0.0240 -0.9997
vn -0.0211 -0.0242 -0.9995
vn -0.7416 -0.0000 0.6709
vn -0.0000 -0.0054 -1.0000
vn 0.0305 -0.0031 -0.9995
vn -0.0085 -0.0031 -1.0000
vn -0.0000 0.7852 0.6193
vn -0.2821 -0.0000 0.9594
vn 0.0209 -0.0031 -0.9998
vn 0.0305 0.0031 -0.9995
vn -0.0000 0.0054 -1.0000
vn -0.0000 -0.7852 0.6193
vn 0.0211 -0.0242 -0.9995
vn 0.0209 0.0031 -0.9998
vn -0.0305 -0.0031 -0.9995
vn 0.2821 -0.0000 0.9594
vn -0.0211 0.0242 -0.9995
vn -0.0209 -0.0031 -0.9998
vn -0.0305 0.0031 -0.9995
vn 0.0085 0.0031 -1.0000
vn -0.0209 0.0031 -0.9998
vt 0.849273 0.625000
vt 0.150727 0.625000
vt 0.125000 0.500000
vt 0.375000 0.250000
vt 0.625000 0.250000
vt 0.875000 0.500000
vt 0.849273 0.556459
vt 0.875000 0.556459
vt 0.625000 0.193541
vt 0.137864 0.625000
vt 0.862136 0.625000
vt 0.375000 0.375000
vt 0.250000 0.500000
vt 0.750000 0.500000
vt 0.625000 0.375000
vt 0.625000 0.275727
vt 0.849273 0.500000
vt 0.375000 0.275727
vt 0.150727 0.500000
vt 0.375000 0.125000
vt 0.125000 0.625000
vt 0.875000 0.625000
vt 0.625000 0.125000
vt 0.625000 0.262864
vt 0.862136 0.500000
vt 0.375000 0.262864
vt 0.137864 0.500000
vt 0.750000 0.625000
vt 0.250000 0.625000
vt 0.137864 0.556459
vt 0.150727 0.556459
vt 0.125000 0.556459
vt 0.375000 0.193541
vt 0.862136 0.556459
vt 0.750000 0.556459
vt 0.250000 0.556459
vt 0.875000 0.528230
vt 0.625000 0.221770
vt 0.849273 0.528230
vt 0.150727 0.528230
vt 0.750000 0.528230
vt 0.862136 0.528230
vt 0.137864 0.528230
vt 0.125000 0.528230
vt 0.375000 0.221770
vt 0.250000 0.528230
vt 0.849273 0.542344
vt 0.862136 0.542344
vt 0.855704 0.556459
vt 0.855704 0.528230
vt 0.849273 0.625000
vt 0.150727 0.625000
vt 0.125000 0.500000
vt 0.375000 0.250000
vt 0.875000 0.500000
vt 0.625000 0.250000
vt 0.849273 0.556459
vt 0.875000 0.556459
vt 0.625000 0.193541
vt 0.137864 0.625000
vt 0.862136 0.625000
vt 0.625000 0.275727
vt 0.849273 0.500000
vt 0.375000 0.275727
vt 0.150727 0.500000
vt 0.375000 0.125000
vt 0.125000 0.625000
vt 0.875000 0.625000
vt 0.625000 0.125000
vt 0.625000 0.262864
vt 0.862136 0.500000
vt 0.375000 0.262864
vt 0.137864 0.500000
vt 0.137864 0.556459
vt 0.150727 0.556459
vt 0.125000 0.556459
vt 0.375000 0.193541
vt 0.862136 0.556459
vt 0.875000 0.528230
vt 0.625000 0.221770
vt 0.849273 0.528230
vt 0.150727 0.528230
vt 0.862136 0.528230
vt 0.137864 0.528230
vt 0.125000 0.528230
vt 0.375000 0.221770
vt 0.849273 0.542344
vt 0.862136 0.542344
vt 0.855704 0.556459
vt 0.855704 0.528230
vt 0.125000 0.500000
vt 0.375000 0.250000
vt 0.875000 0.500000
vt 0.625000 0.250000
vt 0.849273 0.556459
vt 0.875000 0.556459
vt 0.625000 0.193541
vt 0.375000 0.375000
vt 0.250000 0.500000
vt 0.750000 0.500000
vt 0.625000 0.375000
vt 0.625000 0.275727
vt 0.849273 0.500000
vt 0.375000 0.275727
vt 0.150727 0.500000
vt 0.625000 0.262864
vt 0.862136 0.500000
vt 0.375000 0.262864
vt 0.137864 0.500000
vt 0.137864 0.556459
vt 0.150727 0.556459
vt 0.125000 0.556459
vt 0.375000 0.193541
vt 0.862136 0.556459
vt 0.750000 0.556459
vt 0.250000 0.556459
vt 0.875000 0.528230
vt 0.625000 0.221770
vt 0.849273 0.528230
vt 0.150727 0.528230
vt 0.750000 0.528230
vt 0.862136 0.528230
vt 0.137864 0.528230
vt 0.125000 0.528230
vt 0.375000 0.221770
vt 0.250000 0.528230
vt 0.849273 0.542344
vt 0.862136 0.542344
vt 0.855704 0.556459
vt 0.855704 0.528230
vt 0.125000 0.500000
vt 0.375000 0.250000
vt 0.625000 0.250000
vt 0.875000 0.500000
vt 0.849273 0.556459
vt 0.875000 0.556459
vt 0.625000 0.193541
vt 0.625000 0.275727
vt 0.849273 0.500000
vt 0.375000 0.275727
vt 0.150727 0.500000
vt 0.625000 0.262864
vt 0.862136 0.500000
vt 0.375000 0.262864
vt 0.137864 0.500000
vt 0.137864 0.556459
vt 0.150727 0.556459
vt 0.125000 0.556459
vt 0.375000 0.193541
vt 0.862136 0.556459
vt 0.875000 0.528230
vt 0.625000 0.221770
vt 0.849273 0.528230
vt 0.150727 0.528230
vt 0.862136 0.528230
vt 0.137864 0.528230
vt 0.125000 0.528230
vt 0.375000 0.221770
vt 0.849273 0.542344
vt 0.862136 0.542344
vt 0.855704 0.556459
vt 0.855704 0.528230
s 0
usemtl Material.021
f 25/38/1 31/45/1 3/4/1
f 33/47/2 23/35/2 5/7/2
f 20/31/3 19/30/3 7/10/3
f 32/46/3 27/40/3 20/31/3
f 23/35/4 17/28/4 1/1/4
f 25/37/5 22/34/5 6/8/5
f 15/24/6 16/26/6 12/18/6
f 27/40/3 30/43/3 19/30/3
f 11/16/6 12/18/6 9/12/6
f 24/36/3 20/31/3 2/2/3
f 4/5/6 3/4/6 16/26/6
f 6/8/7 22/34/7 8/11/7
f 19/30/3 21/32/3 13/21/3
f 30/43/3 31/44/3 21/32/3
f 8/11/8 22/34/8 5/7/8
f 14/23/1 13/20/1 21/33/1
f 16/27/3 3/3/3 31/44/3
f 12/19/3 16/27/3 30/43/3
f 15/25/9 29/42/9 25/37/9
f 9/13/3 12/19/3 27/40/3
f 11/17/4 10/14/4 28/41/4
f 29/42/10 26/39/10 36/50/10
f 6/9/1 21/33/1 31/45/1
f 39/54/11 60/86/11 55/80/11
f 23/35/12 61/87/12 41/57/12
f 43/60/3 51/74/3 52/75/3
f 52/75/3 57/82/3 32/46/3
f 23/35/13 41/57/13 37/51/13
f 54/78/14 55/79/14 42/58/14
f 46/64/6 50/72/6 49/70/6
f 51/74/3 59/84/3 57/82/3
f 9/12/6 46/64/6 45/62/6
f 38/52/3 52/75/3 24/36/3
f 50/72/6 39/54/6 40/56/6
f 44/61/15 54/78/15 42/58/15
f 47/67/3 53/76/3 51/74/3
f 53/76/3 60/85/3 59/84/3
f 54/78/8 44/61/8 41/57/8
f 53/77/11 47/66/11 48/69/11
f 60/85/3 39/53/3 50/73/3
f 59/84/3 50/73/3 46/65/3
f 49/71/4 40/55/4 55/79/4
f 57/82/3 46/65/3 9/13/3
f 28/41/4 10/14/4 45/63/4
f 56/81/16 49/71/16 58/83/16
f 60/86/11 53/77/11 42/59/11
f 65/92/1 87/125/1 81/118/1
f 79/115/17 89/127/17 67/95/17
f 7/10/3 75/110/3 76/111/3
f 76/111/3 83/120/3 88/126/3
f 79/115/18 67/95/18 1/1/18
f 78/114/5 81/117/5 68/96/5
f 72/104/19 74/108/19 73/106/19
f 75/110/3 86/123/3 83/120/3
f 69/98/19 72/104/19 71/102/19
f 2/2/3 76/111/3 80/116/3
f 74/108/19 65/92/19 66/94/19
f 8/11/20 78/114/20 68/96/20
f 13/21/3 77/112/3 75/110/3
f 77/112/3 87/124/3 86/123/3
f 78/114/21 8/11/21 67/95/21
f 77/113/1 13/20/1 14/23/1
f 87/124/3 65/91/3 74/109/3
f 86/123/3 74/109/3 72/105/3
f 73/107/4 66/93/4 81/117/4
f 83/120/3 72/105/3 69/99/3
f 84/121/4 70/100/4 71/103/4
f 82/119/22 73/107/22 85/122/22
f 87/125/1 77/113/1 68/97/1
f 105/152/11 110/158/11 93/132/11
f 111/159/23 79/115/23 95/135/23
f 102/147/3 101/146/3 43/60/3
f 88/126/3 107/154/3 102/147/3
f 79/115/4 17/28/4 37/51/4
f 105/151/14 104/150/14 96/136/14
f 99/142/19 100/144/19 98/140/19
f 107/154/3 109/156/3 101/146/3
f 97/138/19 98/140/19 69/98/19
f 80/116/3 102/147/3 38/52/3
f 94/133/19 93/132/19 100/144/19
f 96/136/24 104/150/24 44/61/24
f 101/146/3 103/148/3 47/67/3
f 109/156/3 110/157/3 103/148/3
f 44/61/21 104/150/21 95/135/21
f 48/69/11 47/66/11 103/149/11
f 100/145/3 93/131/3 110/157/3
f 98/141/3 100/145/3 109/156/3
f 99/143/25 108/155/25 105/151/25
f 69/99/3 98/141/3 107/154/3
f 97/139/4 70/100/4 84/121/4
f 108/155/26 106/153/26 114/162/26
f 96/137/11 103/149/11 110/158/11
f 25/38/1 3/4/1 4/5/1
f 23/35/27 33/47/27 28/41/27
f 28/41/28 33/47/28 26/39/28
f 20/31/3 7/10/3 2/2/3
f 32/46/3 20/31/3 24/36/3
f 23/35/29 1/1/29 5/7/29
f 34/48/30 22/34/30 29/42/30
f 29/42/5 22/34/5 25/37/5
f 15/24/6 12/18/6 11/16/6
f 27/40/3 19/30/3 20/31/3
f 11/16/6 9/12/6 10/15/6
f 24/36/3 2/2/3 18/29/3
f 4/5/6 16/26/6 15/24/6
f 6/8/4 8/11/4 14/22/4
f 19/30/3 13/21/3 7/10/3
f 30/43/3 21/32/3 19/30/3
f 1/1/8 8/11/8 5/7/8
f 5/7/31 22/34/31 35/49/31
f 14/23/1 21/33/1 6/9/1
f 16/27/3 31/44/3 30/43/3
f 12/19/3 30/43/3 27/40/3
f 15/25/4 25/37/4 4/6/4
f 9/13/3 27/40/3 32/46/3
f 11/17/32 28/41/32 26/39/32
f 26/39/16 15/25/16 11/17/16
f 15/25/16 26/39/16 29/42/16
f 6/9/1 31/45/1 25/38/1
f 39/54/11 55/80/11 40/56/11
f 56/81/33 61/87/33 28/41/33
f 28/41/34 61/87/34 23/35/34
f 43/60/3 52/75/3 38/52/3
f 52/75/3 32/46/3 24/36/3
f 23/35/4 37/51/4 17/28/4
f 55/79/14 54/78/14 58/83/14
f 58/83/35 54/78/35 62/88/35
f 46/64/6 49/70/6 45/62/6
f 51/74/3 57/82/3 52/75/3
f 9/12/6 45/62/6 10/15/6
f 38/52/3 24/36/3 18/29/3
f 50/72/6 40/56/6 49/70/6
f 44/61/4 42/58/4 48/68/4
f 47/67/3 51/74/3 43/60/3
f 53/76/3 59/84/3 51/74/3
f 63/89/31 54/78/31 41/57/31
f 41/57/8 44/61/8 37/51/8
f 53/77/11 48/69/11 42/59/11
f 60/85/3 50/73/3 59/84/3
f 59/84/3 46/65/3 57/82/3
f 49/71/36 55/79/36 58/83/36
f 57/82/3 9/13/3 32/46/3
f 28/41/37 45/63/37 56/81/37
f 49/71/16 56/81/16 45/63/16
f 56/81/10 58/83/10 64/90/10
f 60/86/11 42/59/11 55/80/11
f 65/92/1 81/118/1 66/94/1
f 82/119/38 89/127/38 84/121/38
f 84/121/27 89/127/27 79/115/27
f 7/10/3 76/111/3 2/2/3
f 76/111/3 88/126/3 80/116/3
f 79/115/4 1/1/4 17/28/4
f 81/117/5 78/114/5 85/122/5
f 85/122/30 78/114/30 90/128/30
f 72/104/19 73/106/19 71/102/19
f 75/110/3 83/120/3 76/111/3
f 69/98/19 71/102/19 70/101/19
f 2/2/3 80/116/3 18/29/3
f 74/108/19 66/94/19 73/106/19
f 8/11/4 68/96/4 14/22/4
f 13/21/3 75/110/3 7/10/3
f 77/112/3 86/123/3 75/110/3
f 91/129/39 78/114/39 67/95/39
f 67/95/21 8/11/21 1/1/21
f 77/113/1 14/23/1 68/97/1
f 87/124/3 74/109/3 86/123/3
f 86/123/3 72/105/3 83/120/3
f 73/107/40 81/117/40 85/122/40
f 83/120/3 69/99/3 88/126/3
f 84/121/41 71/103/41 82/119/41
f 73/107/22 82/119/22 71/103/22
f 82/119/26 85/122/26 92/130/26
f 87/125/1 68/97/1 81/118/1
f 105/152/11 93/132/11 94/133/11
f 79/115/34 111/159/34 84/121/34
f 84/121/42 111/159/42 106/153/42
f 102/147/3 43/60/3 38/52/3
f 88/126/3 102/147/3 80/116/3
f 79/115/43 37/51/43 95/135/43
f 112/160/35 104/150/35 108/155/35
f 108/155/14 104/150/14 105/151/14
f 99/142/19 98/140/19 97/138/19
f 107/154/3 101/146/3 102/147/3
f 97/138/19 69/98/19 70/101/19
f 80/116/3 38/52/3 18/29/3
f 94/133/19 100/144/19 99/142/19
f 96/136/4 44/61/4 48/68/4
f 101/146/3 47/67/3 43/60/3
f 109/156/3 103/148/3 101/146/3
f 37/51/21 44/61/21 95/135/21
f 95/135/39 104/150/39 113/161/39
f 48/69/11 103/149/11 96/137/11
f 100/145/3 110/157/3 109/156/3
f 98/141/3 109/156/3 107/154/3
f 99/143/4 105/151/4 94/134/4
f 69/99/3 107/154/3 88/126/3
f 97/139/44 84/121/44 106/153/44
f 106/153/22 99/143/22 97/139/22
f 99/143/22 106/153/22 108/155/22
f 96/137/11 110/158/11 105/152/11
